<svg width="780" height="520" version="1.1" viewBox="0 0 206.38 137.58" xmlns="http://www.w3.org/2000/svg">
 <g id="logo_gp" transform="matrix(.40592 0 0 .40592 74.888 23.933)">
  <path d="m-4.7265 274.76c-1.7618-0.34406-4.4032-1.7373-5.1501-2.7166-1.0875-1.4258-1.683-3.0938-1.9977-5.5957-0.33449-2.6592-0.22316-4.8504 0.61146-12.035 0.44934-3.868 0.56863-6.4212 0.56863-12.171 0-5.7496-0.11929-8.3029-0.56863-12.171-0.82819-7.129-0.94452-9.3751-0.6235-12.039 0.56779-4.711 2.6062-7.2158 6.6857-8.2156 2.6466-0.6486 7.4197-0.58219 11.629 0.16179 8.6253 1.5244 22.532 6.5216 35.455 12.741l4.4092 2.1218-0.37426 1.0608c-0.24857 0.70453-0.37426 2.2087-0.37426 4.479v3.4183l-0.99219-0.17148c-4.6375-0.80155-17.643-5.2026-22.347-7.5622-1.8566-0.93131-1.7317-0.46725 0.51863 1.927 5.6049 5.9634 13.508 11.319 19.846 13.449 1.2637 0.42466 2.1225 0.83288 1.9085 0.90721-0.21402 0.0743-1.1475 0.38438-2.0744 0.68905-5.8122 1.9104-14.256 7.6827-19.68 13.453-2.2634 2.4082-2.381 2.8687-0.48529 1.9016 4.4262-2.2581 18.047-6.8955 22.181-7.5522l1.1245-0.17859v3.2885c0 2.0256 0.13952 3.7521 0.36332 4.4957l0.36333 1.2072-3.6045 1.7262c-14.465 6.9276-28.651 11.958-37.374 13.253-3.0003 0.44551-8.0599 0.50962-10.019 0.12692zm139.57-0.75641c-8.7111-1.5622-21.247-6.1681-35.14-12.912-4.2411-2.0585-4.6942-2.3419-4.5224-2.8297 0.10499-0.29813 0.24088-2.1196 0.30202-4.0478 0.0976-3.0775 0.16603-3.5057 0.56034-3.5057 0.86682 0 6.8166 1.5734 9.8286 2.5991 3.9739 1.3533 9.067 3.3009 12.007 4.5914 1.2922 0.56724 2.4112 0.96949 2.4869 0.89385 0.21188-0.21191-4.5522-4.988-7.2175-7.2356-4.4839-3.7813-10.913-7.5395-14.882-8.6998-0.90932-0.26577-1.6535-0.56306-1.6536-0.66064-2.1e-4 -0.0976 0.38659-0.25781 0.85953-0.35605 2.864-0.59486 9.3431-4.0419 13.594-7.2324 2.6794-2.0109 9.4222-8.4533 9.2088-8.7986-0.0788-0.1275-0.58338-0.0404-1.1213 0.19349-8.12 3.5313-17.986 6.8628-22.589 7.6272l-0.97298 0.1616-0.10806-3.911c-0.0594-2.151-0.20126-4.1799-0.31522-4.5086-0.19357-0.55828 0.0507-0.72041 3.7077-2.4614 14.161-6.7413 27.609-11.547 36.629-13.09 3.7515-0.64169 9.17-0.5806 11.432 0.12891 4.7748 1.4976 6.5298 4.9881 6.1924 12.316-0.0804 1.7462-0.41452 5.3777-0.74248 8.0698-0.85444 7.0138-0.84243 15.599 0.032 22.886 0.86405 7.2012 0.89802 12.539 0.096 15.087-0.36306 1.1539-0.94393 2.2779-1.5324 2.9654-1.102 1.2875-3.579 2.5922-5.658 2.9802-2.1888 0.40852-7.5122 0.28062-10.481-0.25177zm-78.604-15.471c-0.44891-0.19426-1.074-0.68094-1.3891-1.0815-0.57158-0.72665-0.57287-0.76073-0.57188-15.179 1e-3 -13.976 0.0183-14.479 0.52929-15.317 0.86283-1.4152 1.567-1.5264 4.7614-0.75197 4.7949 1.1624 6.3338 1.3516 10.98 1.3497 4.6832-3e-3 6.5285-0.22907 11.178-1.3762 3.0842-0.76097 4.0072-0.61534 4.7097 0.743 0.58397 1.1293 0.57203 29.537-0.013 30.668-0.48715 0.94207-1.8583 1.398-3.1135 1.0352-8.4294-2.4359-17.123-2.3866-25.858 0.14671-0.21828 0.0633-0.76416-0.0438-1.2131-0.23807zm-116.53-49.542c-32.903-1.2135-63.435-13.593-87.746-35.575-4.2235-3.8191-10.503-10.236-13.945-14.251-7.2639-8.4726-14.209-19.077-16.057-24.516-0.78421-2.3088-0.88686-2.9367-0.90183-5.5158-0.0193-3.3193 0.39879-4.5798 1.814-5.4696 2.1066-1.3245 6.2254 0.62998 11.531 5.4715 9.3588 8.5409 23.534 15.908 38.745 20.136 5.6146 1.5607 9.1694 2.1483 15.163 2.5064 9.167 0.5477 16.897-0.23598 26.558-2.6924 5.0724-1.2897 7.2445-1.9888 12.006-3.8635 9.9876-3.9328 19.869-9.5342 29.633-16.798 5.9141-4.3996 9.9215-7.8919 16.007-13.949 12.734-12.677 22.612-20.583 33.47-26.793 12.216-6.986 23.108-9.6494 33.999-8.3139 12.792 1.5685 22.345 6.1266 28.231 13.469 0.84405 1.053 1.7192 2.1964 1.9448 2.5409l0.41016 0.62644 1.3656-1.842c2.9931-4.0375 8.147-8.224 12.738-10.347 6.995-3.235 16.433-5.0879 24.078-4.7272 8.5196 0.40196 17.102 3.2128 26.719 8.7505 10.745 6.1878 19.67 13.329 33.094 26.483 7.2168 7.0712 9.8956 9.4215 15.75 13.819 9.4742 7.1165 19.352 12.798 29.104 16.741 5.0374 2.0367 7.3554 2.7897 13.062 4.2434 10.913 2.7799 21.061 3.486 31.785 2.2113 7.6994-0.91512 19.082-4.5706 28.759-9.2358 8.144-3.9261 14.22-7.9208 19.655-12.923 4.2771-3.9362 8.5633-6.2858 10.726-5.8801 2.0183 0.37863 2.9137 2.5902 2.6846 6.6308-0.21082 3.7194-1.0348 6.122-3.6661 10.69-5.2365 9.0903-12.609 18.476-21.386 27.228-13.19 13.151-26.898 22.602-43.233 29.805-30.399 13.405-66.065 15.037-104 4.7578-7.8901-2.1378-18.707-5.7667-25.935-8.701-5.7306-2.3264-11.701-5.59-17.722-9.6877-6.9831-4.7525-15.666-12.661-20.523-18.693-4.8634-6.0398-9.6694-13.946-12.029-19.789-0.41141-1.0186-0.82214-1.9417-0.91275-2.0511-0.0906-0.10948-0.55893 0.78349-1.0407 1.9844-3.8585 9.6177-12.038 21.126-20.519 28.87-5.8694 5.3594-11.249 9.393-17.471 13.1-6.7277 4.0079-10.607 5.7945-19.711 9.078-25.371 9.15-49.474 13.312-72.231 12.472zm46.322-137.43c-6.4723-1.2778-12.491-6.0393-14.772-11.686-0.84611-2.0948-1.5476-4.9852-1.7658-7.2762l-0.18271-1.9182h202.51l-0.18351 1.9182c-0.5832 6.0956-3.3544 11.602-7.501 14.903-1.795 1.4292-4.2539 2.7257-6.8037 3.5873l-1.8521 0.62587-84.137 0.03859c-47.083 0.02159-84.653-0.0632-85.308-0.19254zm43.769-26.185c-7.7122-0.8574-14.611-6.8783-16.545-14.439-0.507-1.9824-0.52083-3.1204-0.52083-42.872v-40.836l60.127 4e-3c34.056 2e-3 61.396 0.10939 63.055 0.24665 15.539 1.286 28.345 13.553 31.221 29.908 0.59568 3.3872 0.52935 9.3667-0.14031 12.653-1.0437 5.1214-3.0049 9.7588-5.7732 13.651-2.1212 2.9823-6.3494 7.1437-9.2704 9.1239-5.3094 3.5993-12.156 6.0688-18.073 6.5184-1.0732 0.08155-2.5762 0.21139-3.3402 0.28853l-1.3891 0.14026-4e-3 3.0898c-0.0124 8.3995-1.4799 12.816-5.684 17.106-3.1246 3.1887-6.6856 4.9108-11.232 5.4319-2.6971 0.30909-79.642 0.2958-82.43-0.01423zm108.48-41.255c2.6561-0.72401 6.2188-2.55 8.0908-4.1468 4.5011-3.8393 7.015-9.1027 7.3172-15.32 0.23488-4.8322-0.92852-9.1434-3.669-13.597-3.9844-6.4744-9.545-9.2762-18.41-9.2762h-2.4543v43.196l3.5057-0.14c2.4018-0.09592 4.1713-0.32144 5.6195-0.71618z" fill="#e81788" stroke-width=".26458"/>
 </g>
</svg>
